<svg width="50" height="39" viewBox="0 0 50 39" fill="none" xmlns="http://www.w3.org/2000/svg">
<path d="M10.7906 0.677506C10.582 0.465642 10.3335 0.29677 10.0592 0.180539C9.78502 0.0643075 9.49047 0.00299545 9.19243 0.000107045C8.89438 -0.00278136 8.59868 0.0528097 8.32223 0.163704C8.04578 0.274599 7.794 0.438624 7.58126 0.646405C5.17486 3.02755 3.26599 5.85938 1.9648 8.97852C0.663606 12.0977 -0.0041624 15.4424 1.9521e-05 18.8197C-0.00388346 22.3265 0.716438 25.7968 2.11628 29.015C3.51611 32.2333 5.5656 35.1308 8.13751 37.5279C8.57039 37.9261 9.14218 38.1408 9.73149 38.1263C10.3208 38.1117 10.8812 37.8692 11.2938 37.4501C12.2813 36.4673 12.1594 34.9028 11.2094 33.9977C9.14532 32.0399 7.50279 29.6848 6.38163 27.0756C5.26047 24.4664 4.68409 21.6575 4.68752 18.8197C4.68752 13.0781 7.00314 7.87154 10.7594 4.08324C11.6656 3.16571 11.7594 1.64169 10.7906 0.677506Z" fill="white"/>
<path d="M16.2938 6.15762C15.8822 5.73614 15.3195 5.49423 14.7291 5.4849C14.1386 5.47557 13.5686 5.69959 13.1438 6.10785C11.4526 7.76896 10.1103 9.74828 9.19505 11.9306C8.27979 14.1129 7.80982 16.4547 7.81251 18.8195C7.81251 24.082 10.0938 28.8127 13.7281 32.0816C14.157 32.4588 14.7153 32.6572 15.2872 32.6358C15.8591 32.6144 16.4008 32.3747 16.8 31.9666C17.825 30.9464 17.6344 29.3415 16.6719 28.4395C15.3525 27.2052 14.3016 25.7146 13.584 24.0599C12.8665 22.4053 12.4975 20.6217 12.5 18.8195C12.5 15.2427 13.9281 11.9956 16.25 9.61312C17.1438 8.6987 17.2906 7.14668 16.2938 6.15762Z" fill="white"/>
<path d="M33.7062 6.15762C34.1178 5.73614 34.6805 5.49423 35.2709 5.4849C35.8614 5.47557 36.4314 5.69959 36.8562 6.10785C38.5474 7.76896 39.8897 9.74828 40.8049 11.9306C41.7202 14.1129 42.1902 16.4547 42.1875 18.8195C42.1875 24.082 39.9062 28.8127 36.2719 32.0816C35.843 32.4588 35.2847 32.6572 34.7128 32.6358C34.1409 32.6144 33.5992 32.3747 33.2 31.9666C32.175 30.9464 32.3656 29.3415 33.3281 28.4395C34.6475 27.2052 35.6984 25.7146 36.416 24.0599C37.1335 22.4053 37.5025 20.6217 37.5 18.8195C37.5 15.2427 36.0719 11.9956 33.75 9.61312C32.8562 8.6987 32.7094 7.14668 33.7062 6.15762Z" fill="white"/>
<path d="M39.2094 0.677506C39.418 0.465642 39.6665 0.29677 39.9408 0.180539C40.215 0.0643075 40.5095 0.00299545 40.8076 0.000107045C41.1056 -0.00278136 41.4013 0.0528097 41.6778 0.163704C41.9542 0.274599 42.206 0.438624 42.4187 0.646405C44.8251 3.02755 46.734 5.85938 48.0352 8.97852C49.3364 12.0977 50.0042 15.4424 50 18.8197C50.0039 22.3265 49.2836 25.7968 47.8837 29.015C46.4839 32.2333 44.4344 35.1308 41.8625 37.5279C41.4296 37.9261 40.8578 38.1408 40.2685 38.1263C39.6792 38.1117 39.1188 37.8692 38.7062 37.4501C37.7187 36.4673 37.8406 34.9028 38.7937 33.9977C40.8572 32.0396 42.4992 29.6844 43.6198 27.0752C44.7404 24.466 45.3163 21.6573 45.3125 18.8197C45.3125 13.0781 42.9969 7.87154 39.2406 4.08324C38.3344 3.16571 38.2406 1.64169 39.2094 0.677506Z" fill="white"/>
<path d="M25.0001 14.1541C23.7569 14.1541 22.5646 14.6456 21.6855 15.5205C20.8064 16.3954 20.3126 17.5821 20.3126 18.8194C20.3126 20.0568 20.8064 21.2434 21.6855 22.1184C22.5646 22.9933 23.7569 23.4848 25.0001 23.4848C26.2433 23.4848 27.4355 22.9933 28.3146 22.1184C29.1937 21.2434 29.6876 20.0568 29.6876 18.8194C29.6876 17.5821 29.1937 16.3954 28.3146 15.5205C27.4355 14.6456 26.2433 14.1541 25.0001 14.1541Z" fill="white"/>
</svg>
