<svg width="617" height="625" viewBox="0 0 617 625" fill="none" xmlns="http://www.w3.org/2000/svg">
<g filter="url(#filter0_d_407_2)">
<path d="M12.1147 395.344C123.954 368.086 186.804 315.845 225.273 222.641C198.013 147.586 189.57 65.573 186.784 12C195.712 51.289 210.925 115.306 240.401 179.935C250.356 147.158 258.29 110.19 264.946 68.547C279.304 131.383 277.547 184.149 265.056 227.716C277.527 249.083 291.839 269.841 308.297 289.072C308.345 165.032 441.586 46.2798 576 12C460.725 80.0265 335.467 206.69 351.294 331.188C393.591 365.519 446.534 389.796 512.992 395.344C455.738 407.221 408.519 403.542 369.57 389.054C372.657 395 376.132 400.918 380.015 406.803C433.375 412.858 496.929 426.251 576 446.75C505.247 434.726 445.83 427.482 393.885 425.555C419.957 457.263 458.716 487.719 512.992 515.781C449.135 488.558 402.348 457.737 369.758 425.042C224.029 424.366 137.339 470.175 12.1147 576C136.874 449.639 203.447 394.388 351.046 404.172C341.27 391.96 333.31 379.546 327.026 367.014C292.654 343.535 266.663 310.172 246.997 272.452C196.06 367.694 86.8041 403.661 12.1147 395.344Z" fill="#FF9E9E"/>
<path d="M0 383.344C111.839 356.086 174.689 303.845 213.158 210.641C185.898 135.586 177.455 53.573 174.669 0C183.597 39.289 198.81 103.306 228.286 167.935C238.241 135.158 246.175 98.1896 252.831 56.547C267.19 119.383 265.432 172.149 252.942 215.716C265.412 237.083 279.724 257.841 296.182 277.072C296.23 153.032 429.472 34.2798 563.885 2.48626e-05C448.61 68.0265 323.353 194.69 339.179 319.188C381.477 353.519 434.419 377.796 500.877 383.344C443.624 395.221 396.404 391.542 357.455 377.054C360.542 383 364.018 388.918 367.9 394.803C421.26 400.858 484.814 414.251 563.885 434.75C493.132 422.726 433.715 415.482 381.771 413.555C407.843 445.263 446.601 475.719 500.877 503.781C437.02 476.558 390.233 445.737 357.643 413.042C211.914 412.366 125.224 458.175 0 564C124.759 437.639 191.332 382.388 338.932 392.172C329.155 379.96 321.195 367.546 314.911 355.014C280.539 331.535 254.548 298.172 234.882 260.452C183.946 355.694 74.6894 391.661 0 383.344Z" fill="#313131"/>
</g>
<defs>
<filter id="filter0_d_407_2" x="0" y="0" width="617" height="625" filterUnits="userSpaceOnUse" color-interpolation-filters="sRGB">
<feFlood flood-opacity="0" result="BackgroundImageFix"/>
<feColorMatrix in="SourceAlpha" type="matrix" values="0 0 0 0 0 0 0 0 0 0 0 0 0 0 0 0 0 0 127 0" result="hardAlpha"/>
<feOffset dx="34" dy="42"/>
<feGaussianBlur stdDeviation="3.5"/>
<feColorMatrix type="matrix" values="0 0 0 0 0 0 0 0 0 0 0 0 0 0 0 0 0 0 0.25 0"/>
<feBlend mode="normal" in2="BackgroundImageFix" result="effect1_dropShadow_407_2"/>
<feBlend mode="normal" in="SourceGraphic" in2="effect1_dropShadow_407_2" result="shape"/>
</filter>
</defs>
</svg>
